<mxfile host="www.draw.io" modified="2019-11-05T06:43:19.755Z" agent="Mozilla/5.0 (Macintosh; Intel Mac OS X 10_14_6) AppleWebKit/537.36 (KHTML, like Gecko) Chrome/78.0.3904.70 Safari/537.36" etag="zfIwBjEMX3_InZUJEtHB" version="12.2.0" type="github" pages="1">
  <diagram id="rIqv8WqF2CkcUCN2QPh2" name="第 1 页">
    <mxGraphModel dx="1412" dy="932" grid="1" gridSize="10" guides="1" tooltips="1" connect="1" arrows="1" fold="1" page="1" pageScale="1" pageWidth="827" pageHeight="1169" math="0" shadow="0">
      <root>
        <mxCell id="0"/>
        <mxCell id="1" parent="0"/>
        <mxCell id="8ivFGuSRa5Zrf-ervXkN-1" value="BIO" style="swimlane;html=1;childLayout=stackLayout;resizeParent=1;resizeParentMax=0;startSize=20;fillColor=#dae8fc;strokeColor=#6c8ebf;rounded=0;swimlaneLine=0;glass=1;dashed=1;" vertex="1" parent="1">
          <mxGeometry x="183" y="220" width="314" height="290" as="geometry">
            <mxRectangle x="186" y="220" width="50" height="20" as="alternateBounds"/>
          </mxGeometry>
        </mxCell>
        <mxCell id="8ivFGuSRa5Zrf-ervXkN-2" value="应用程序" style="swimlane;html=1;startSize=20;fillColor=#6d8764;strokeColor=#3A5431;dashed=1;fontColor=#ffffff;" vertex="1" parent="8ivFGuSRa5Zrf-ervXkN-1">
          <mxGeometry y="20" width="160" height="270" as="geometry">
            <mxRectangle y="20" width="20" height="230" as="alternateBounds"/>
          </mxGeometry>
        </mxCell>
        <mxCell id="8ivFGuSRa5Zrf-ervXkN-17" value="handler data" style="text;html=1;resizable=0;points=[];autosize=1;align=left;verticalAlign=top;spacingTop=-4;" vertex="1" parent="8ivFGuSRa5Zrf-ervXkN-2">
          <mxGeometry x="17" y="250" width="80" height="20" as="geometry"/>
        </mxCell>
        <mxCell id="8ivFGuSRa5Zrf-ervXkN-3" value="系统内核" style="swimlane;html=1;startSize=20;fillColor=#e51400;strokeColor=#B20000;dashed=1;fontColor=#ffffff;" vertex="1" parent="8ivFGuSRa5Zrf-ervXkN-1">
          <mxGeometry x="160" y="20" width="154" height="270" as="geometry">
            <mxRectangle x="150" y="20" width="20" height="230" as="alternateBounds"/>
          </mxGeometry>
        </mxCell>
        <mxCell id="8ivFGuSRa5Zrf-ervXkN-4" value="虚怀若谷&lt;br&gt;www.zhoujunwen.com" style="text;html=1;resizable=0;points=[];autosize=1;align=center;verticalAlign=top;spacingTop=-4;fontColor=#E1D5E7;labelBackgroundColor=none;labelBorderColor=none;rounded=0;glass=1;shadow=0;comic=0;fontFamily=Comic Sans MS;rotation=20;" vertex="1" parent="8ivFGuSRa5Zrf-ervXkN-3">
          <mxGeometry x="-63" y="110" width="130" height="30" as="geometry"/>
        </mxCell>
        <mxCell id="8ivFGuSRa5Zrf-ervXkN-16" value="" style="shape=curlyBracket;whiteSpace=wrap;html=1;rounded=1;rotation=180;" vertex="1" parent="8ivFGuSRa5Zrf-ervXkN-3">
          <mxGeometry x="131" y="169" width="23" height="91" as="geometry"/>
        </mxCell>
        <mxCell id="8ivFGuSRa5Zrf-ervXkN-15" value="复制完成" style="text;html=1;resizable=0;points=[];autosize=1;align=left;verticalAlign=top;spacingTop=-4;" vertex="1" parent="8ivFGuSRa5Zrf-ervXkN-3">
          <mxGeometry x="75" y="250" width="60" height="20" as="geometry"/>
        </mxCell>
        <mxCell id="8ivFGuSRa5Zrf-ervXkN-11" value="有数据包&lt;br&gt;开始复制" style="text;html=1;resizable=0;points=[];autosize=1;align=left;verticalAlign=top;spacingTop=-4;" vertex="1" parent="8ivFGuSRa5Zrf-ervXkN-3">
          <mxGeometry x="75" y="150" width="60" height="30" as="geometry"/>
        </mxCell>
        <mxCell id="8ivFGuSRa5Zrf-ervXkN-10" style="edgeStyle=orthogonalEdgeStyle;rounded=0;orthogonalLoop=1;jettySize=auto;html=1;" edge="1" parent="8ivFGuSRa5Zrf-ervXkN-3" source="8ivFGuSRa5Zrf-ervXkN-11" target="8ivFGuSRa5Zrf-ervXkN-15">
          <mxGeometry relative="1" as="geometry"/>
        </mxCell>
        <mxCell id="8ivFGuSRa5Zrf-ervXkN-26" value="......" style="text;html=1;strokeColor=none;fillColor=none;align=center;verticalAlign=middle;whiteSpace=wrap;rounded=0;horizontal=0;fontStyle=1;fontSize=17;" vertex="1" parent="8ivFGuSRa5Zrf-ervXkN-3">
          <mxGeometry x="-11" y="107" width="10" height="20" as="geometry"/>
        </mxCell>
        <mxCell id="8ivFGuSRa5Zrf-ervXkN-14" value="返回成功提醒" style="edgeStyle=orthogonalEdgeStyle;rounded=0;orthogonalLoop=1;jettySize=auto;html=1;entryX=0.988;entryY=0.5;entryDx=0;entryDy=0;entryPerimeter=0;" edge="1" parent="8ivFGuSRa5Zrf-ervXkN-1" source="8ivFGuSRa5Zrf-ervXkN-15" target="8ivFGuSRa5Zrf-ervXkN-17">
          <mxGeometry relative="1" as="geometry"/>
        </mxCell>
        <mxCell id="8ivFGuSRa5Zrf-ervXkN-5" value="" style="shape=curlyBracket;whiteSpace=wrap;html=1;rounded=1;strokeWidth=2;" vertex="1" parent="1">
          <mxGeometry x="180" y="270" width="20" height="230" as="geometry"/>
        </mxCell>
        <mxCell id="8ivFGuSRa5Zrf-ervXkN-6" value="系统调用" style="edgeStyle=orthogonalEdgeStyle;rounded=0;orthogonalLoop=1;jettySize=auto;html=1;" edge="1" parent="1" source="8ivFGuSRa5Zrf-ervXkN-7" target="8ivFGuSRa5Zrf-ervXkN-9">
          <mxGeometry relative="1" as="geometry"/>
        </mxCell>
        <mxCell id="8ivFGuSRa5Zrf-ervXkN-7" value="read" style="text;html=1;resizable=0;points=[];autosize=1;align=left;verticalAlign=top;spacingTop=-4;" vertex="1" parent="1">
          <mxGeometry x="215" y="260" width="40" height="20" as="geometry"/>
        </mxCell>
        <mxCell id="8ivFGuSRa5Zrf-ervXkN-8" style="edgeStyle=orthogonalEdgeStyle;rounded=0;orthogonalLoop=1;jettySize=auto;html=1;" edge="1" parent="1" source="8ivFGuSRa5Zrf-ervXkN-9" target="8ivFGuSRa5Zrf-ervXkN-11">
          <mxGeometry relative="1" as="geometry"/>
        </mxCell>
        <mxCell id="8ivFGuSRa5Zrf-ervXkN-9" value="无数据包" style="text;html=1;resizable=0;points=[];autosize=1;align=left;verticalAlign=top;spacingTop=-4;" vertex="1" parent="1">
          <mxGeometry x="418" y="260" width="60" height="20" as="geometry"/>
        </mxCell>
        <mxCell id="8ivFGuSRa5Zrf-ervXkN-12" value="" style="shape=curlyBracket;whiteSpace=wrap;html=1;rounded=1;rotation=180;" vertex="1" parent="1">
          <mxGeometry x="474" y="270" width="23" height="130" as="geometry"/>
        </mxCell>
        <mxCell id="8ivFGuSRa5Zrf-ervXkN-13" value="等待数据" style="text;html=1;resizable=0;points=[];autosize=1;align=center;verticalAlign=top;spacingTop=-4;fillColor=#b0e3e6;strokeColor=#0e8088;" vertex="1" parent="1">
          <mxGeometry x="497" y="325" width="60" height="20" as="geometry"/>
        </mxCell>
        <mxCell id="8ivFGuSRa5Zrf-ervXkN-18" value="将数据从内核&lt;br&gt;复制到用户空间" style="text;html=1;resizable=0;points=[];autosize=1;align=center;verticalAlign=top;spacingTop=-4;fillColor=#b0e3e6;strokeColor=#0e8088;" vertex="1" parent="1">
          <mxGeometry x="497" y="440" width="100" height="30" as="geometry"/>
        </mxCell>
        <mxCell id="8ivFGuSRa5Zrf-ervXkN-19" value="进程阻塞于read调用" style="text;html=1;resizable=0;points=[];autosize=1;align=left;verticalAlign=top;spacingTop=-4;fillColor=#f5f5f5;strokeColor=#666666;fontColor=#333333;" vertex="1" parent="1">
          <mxGeometry x="60" y="375" width="120" height="20" as="geometry"/>
        </mxCell>
        <mxCell id="8ivFGuSRa5Zrf-ervXkN-20" value="无数据包直接返回" style="endArrow=classic;html=1;" edge="1" parent="1">
          <mxGeometry width="50" height="50" relative="1" as="geometry">
            <mxPoint x="440" y="290" as="sourcePoint"/>
            <mxPoint x="250" y="290" as="targetPoint"/>
          </mxGeometry>
        </mxCell>
        <mxCell id="8ivFGuSRa5Zrf-ervXkN-21" value="" style="endArrow=classic;html=1;" edge="1" parent="1">
          <mxGeometry width="50" height="50" relative="1" as="geometry">
            <mxPoint x="250" y="310" as="sourcePoint"/>
            <mxPoint x="440" y="310" as="targetPoint"/>
          </mxGeometry>
        </mxCell>
        <mxCell id="8ivFGuSRa5Zrf-ervXkN-22" value="系统调用" style="text;html=1;resizable=0;points=[];align=center;verticalAlign=middle;labelBackgroundColor=#ffffff;" vertex="1" connectable="0" parent="8ivFGuSRa5Zrf-ervXkN-21">
          <mxGeometry x="-0.0421" relative="1" as="geometry">
            <mxPoint as="offset"/>
          </mxGeometry>
        </mxCell>
        <mxCell id="8ivFGuSRa5Zrf-ervXkN-23" value="无数据包直接返回" style="endArrow=classic;html=1;" edge="1" parent="1">
          <mxGeometry width="50" height="50" relative="1" as="geometry">
            <mxPoint x="436" y="330" as="sourcePoint"/>
            <mxPoint x="250" y="330" as="targetPoint"/>
          </mxGeometry>
        </mxCell>
      </root>
    </mxGraphModel>
  </diagram>
</mxfile>
